<svg id="Layer_1" data-name="Layer 1" xmlns="http://www.w3.org/2000/svg" xmlns:xlink="http://www.w3.org/1999/xlink" viewBox="0 0 441.52 485.44"><defs><style>.cls-1{fill:url(#linear-gradient);}.cls-2{fill:url(#linear-gradient-2);}.cls-3{fill:url(#linear-gradient-3);}.cls-4{fill:#fff200;}.cls-5{fill:#ed1c24;}.cls-6{fill:#c49a6c;}.cls-7{fill:#d7df23;}.cls-8{fill:#f15a29;}.cls-9{fill:#00aeef;}</style><linearGradient id="linear-gradient" x1="49.52" y1="290.79" x2="444.32" y2="290.79" gradientUnits="userSpaceOnUse"><stop offset="0" stop-color="#d7df23"/><stop offset="0.01" stop-color="#dbdc21"/><stop offset="0.1" stop-color="#eed115"/><stop offset="0.19" stop-color="#f9c90e"/><stop offset="0.28" stop-color="#fdc70c"/><stop offset="0.39" stop-color="#fab71b"/><stop offset="0.67" stop-color="#f3903f"/><stop offset="0.89" stop-color="#ed683c"/><stop offset="1" stop-color="#ed1c24"/></linearGradient><linearGradient id="linear-gradient-2" x1="29.24" y1="185.64" x2="366.81" y2="185.64" xlink:href="#linear-gradient"/><linearGradient id="linear-gradient-3" x1="93.59" y1="181.2" x2="461.38" y2="181.2" xlink:href="#linear-gradient"/></defs><path class="cls-1" d="M279.07,88.85c37.87,64.42,74.45,126.63,111,188.86,17.13,29.15,33.89,58.53,51.49,87.39,4.46,7.3,3.66,10.32-3.56,14.58q-93.31,55-186.21,110.73c-4.92,2.94-8.62,3.16-13.71.15Q147.25,436.77,56.17,383.38c-1.45-.85-2.65-2.1-6.65-5.34,26.48,0,50-.23,73.41.24,3.72.07,7.48,3.11,11,5.1,33.49,18.78,67.09,37.38,100.31,56.63,7.93,4.6,13.82,5.2,22.07.2Q316.21,404,377,369.33c8.54-4.87,9.05-8.58,4.5-16.72-39.24-70.17-77.84-140.7-117.29-210.75-5.63-10-7-17.66,0-27.16C269.46,107.44,273.26,99.07,279.07,88.85Z" transform="translate(-29.24 -7.28)"/><path class="cls-2" d="M325.48,313.59c10.3,0,20.15,3.44,25,13.14,2.51,5,4.79,10.21,7.59,15.11s6,9.57,8.77,14.48H351.14q-152.23,0-304.47-.15c-5.22,0-11.09,2-15.56-2.79-2.47-3.27-1.38-7.07-1.38-10.62q-.11-104.28.07-208.56c0-3.7-2.34-8.36,2.48-11.15L210.74,21.24a69.19,69.19,0,0,1,14-6.56C207.07,43,200.45,78.33,164.89,94.85,136,108.25,109.4,126.48,81.75,142.5c-5.73,3.32-9.75,6.68-9.68,14.69.47,49.81.25,99.63.35,149.45,0,3-1.24,6.55,2.54,8.49" transform="translate(-29.24 -7.28)"/><path class="cls-3" d="M458.43,350.47c-12.57-22.28-25-44.62-37.8-66.78-3-5.15-2.85-10.44-2.85-15.9,0-36.62-.28-73.24.19-109.86.11-8.63-3.27-12.89-10.47-16.85-42.88-23.58-85.65-47.37-128.09-71.72-8.61-4.94-11.76-3.16-16.3,5C223.91,144.59,183.94,214.45,145,284.85c-5.75,10.4-11.94,14.63-23.49,13.43-9-.94-18.23-.19-27.12-.19-2.4-5.44,1.45-8.45,3.3-11.75C147.68,197.49,198,108.8,247.72,19.79c5.14-9.2,8.57-9.72,17.46-4.67,64.45,36.52,129.27,72.4,194,108.49,2.95,2.49,1.88,5.92,1.88,9q.09,104.83,0,209.67C461,345.07,462.83,348.87,458.43,350.47Z" transform="translate(-29.24 -7.28)"/><circle class="cls-4" cx="192.57" cy="9.38" r="9.38"/><circle class="cls-5" cx="248.25" cy="81.57" r="9.38"/><circle class="cls-6" cx="64.36" cy="287.28" r="9.38"/><circle class="cls-7" cx="20.28" cy="370.62" r="9.38"/><circle class="cls-8" cx="337.57" cy="346.6" r="9.38"/><circle class="cls-9" cx="432.14" cy="343.19" r="9.38"/></svg>